<svg width="14" height="14" viewBox="0 0 14 14" fill="none" xmlns="http://www.w3.org/2000/svg">
<path d="M13.6042 10.2746L11.6505 8.32084C10.9527 7.62307 9.76654 7.90221 9.48743 8.80927C9.2781 9.43729 8.58034 9.78617 7.95235 9.64659C6.55682 9.29771 4.67286 7.48352 4.32398 6.01822C4.11465 5.3902 4.53331 4.69244 5.1613 4.48313C6.06839 4.20403 6.3475 3.01783 5.64973 2.32007L3.69599 0.366326C3.13778 -0.122109 2.30046 -0.122109 1.81203 0.366326L0.486277 1.69208C-0.839475 3.08761 0.62583 6.78576 3.90532 10.0652C7.18481 13.3447 10.883 14.8798 12.2785 13.4843L13.6042 12.1585C14.0927 11.6003 14.0927 10.763 13.6042 10.2746Z" fill="#FAFAFA"/>
</svg>
