<svg width="14" height="14" viewBox="0 0 14 14" fill="none" xmlns="http://www.w3.org/2000/svg">
<path d="M7 0C3.14005 0 0 3.14005 0 7C0 10.86 3.14005 14 7 14C10.86 14 14 10.86 14 7C14 3.14005 10.86 0 7 0Z" fill="#006FF9"/>
<path d="M10.5506 5.5174L6.7589 9.30899C6.64514 9.42274 6.49582 9.48 6.3465 9.48C6.19717 9.48 6.04785 9.42274 5.9341 9.30899L4.0383 7.41319C3.81015 7.18515 3.81015 6.81644 4.0383 6.58839C4.26634 6.36024 4.63495 6.36024 4.8631 6.58839L6.3465 8.07179L9.7258 4.6926C9.95384 4.46445 10.3224 4.46445 10.5506 4.6926C10.7786 4.92064 10.7786 5.28925 10.5506 5.5174Z" fill="#FAFAFA"/>
</svg>
