<svg width="18" height="16" viewBox="0 0 18 16" fill="none" xmlns="http://www.w3.org/2000/svg">
<path d="M0.586961 0C0.262782 0 0 0.262792 0 0.586961C0 0.91113 0.262782 1.17392 0.586961 1.17392H2.9287C3.90016 3.57997 4.85704 5.99042 5.8207 8.40088L4.93415 10.5347C4.85988 10.7126 4.88078 10.9271 4.98798 11.0874C5.09519 11.2476 5.28553 11.3487 5.4783 11.3479H15.261C15.5711 11.3522 15.8563 11.0711 15.8563 10.761C15.8563 10.4508 15.5711 10.1696 15.261 10.174H6.35874L6.86623 8.96338L16.2882 8.21135C16.5348 8.19198 16.758 7.99985 16.814 7.7589L17.9879 2.6719C18.0647 2.32926 17.7643 1.95539 17.4132 1.95654H4.50614L3.87026 0.366851C3.7832 0.151667 3.55824 5.86961e-06 3.32611 0H0.586961ZM4.97694 3.13046H16.6734L15.7623 7.08022L6.84177 7.78946L4.97694 3.13046ZM7.43484 11.7392C6.36123 11.7392 5.4783 12.6221 5.4783 13.6958C5.4783 14.7694 6.36123 15.6523 7.43484 15.6523C8.50845 15.6523 9.39138 14.7694 9.39138 13.6958C9.39138 12.6221 8.50845 11.7392 7.43484 11.7392ZM13.3045 11.7392C12.2308 11.7392 11.3479 12.6221 11.3479 13.6958C11.3479 14.7694 12.2308 15.6523 13.3045 15.6523C14.3781 15.6523 15.261 14.7694 15.261 13.6958C15.261 12.6221 14.3781 11.7392 13.3045 11.7392ZM7.43484 12.9131C7.87402 12.9131 8.21745 13.2566 8.21745 13.6958C8.21745 14.1349 7.87402 14.4784 7.43484 14.4784C6.9957 14.4784 6.65223 14.1349 6.65223 13.6958C6.65223 13.2566 6.9957 12.9131 7.43484 12.9131ZM13.3045 12.9131C13.7436 12.9131 14.0871 13.2566 14.0871 13.6958C14.0871 14.1349 13.7436 14.4784 13.3045 14.4784C12.8653 14.4784 12.5218 14.1349 12.5218 13.6958C12.5218 13.2566 12.8653 12.9131 13.3045 12.9131Z" fill="#006FF9"/>
</svg>
