<svg width="14" height="8" viewBox="0 0 14 8" fill="none" xmlns="http://www.w3.org/2000/svg">
<path d="M13.6108 3.99895C13.6052 3.85595 13.5463 3.69067 13.4481 3.58643L10.2456 0.186271C10.0286 -0.00858856 9.61247 -0.0890285 9.36991 0.136271C9.13101 0.358171 9.13811 0.788528 9.37612 1.01131L11.6279 3.39893H0.600475C0.268853 3.39893 0 3.66757 0 3.99895C0 4.33033 0.268853 4.59898 0.600475 4.59898H11.6279L9.37612 6.9866C9.17122 7.1917 9.13335 7.63719 9.36991 7.86163C9.60642 8.08605 10.0375 8.01435 10.2456 7.81161L13.4481 4.41148C13.5577 4.29512 13.6111 4.15859 13.6108 3.99895Z" fill="white"/>
</svg>
