<svg width="14" height="14" viewBox="0 0 14 14" fill="none" xmlns="http://www.w3.org/2000/svg">
<path d="M13.989 3.0154C13.989 2.9994 14 2.98383 13.9993 2.96802L9.72697 7.08463L13.9942 11.0697C13.9967 11.0413 13.989 11.0126 13.989 10.9835V3.0154Z" fill="#FAFAFA"/>
<path d="M9.07384 7.71753L7.32976 9.39556C7.2415 9.48047 7.12752 9.52305 7.01347 9.52305C6.9018 9.52305 6.79012 9.4823 6.70247 9.40061L4.96313 7.77981L0.668064 11.9198C0.7725 11.9573 0.8846 11.9865 1.00199 11.9865H13.025C13.1993 11.9865 13.3628 11.9334 13.505 11.8542L9.07384 7.71753Z" fill="#FAFAFA"/>
<path d="M7.01224 8.43893L13.5324 2.15812C13.3848 2.07035 13.2129 2.01147 13.0288 2.01147H1.00575C0.76592 2.01147 0.54616 2.1046 0.375 2.24662L7.01224 8.43893Z" fill="#FAFAFA"/>
<path d="M0 3.16748V10.9825C0 11.0722 0.0206195 11.1587 0.043003 11.2413L4.28479 7.1566L0 3.16748Z" fill="#FAFAFA"/>
</svg>
