<svg width="36" height="30" viewBox="0 0 36 30" fill="none" xmlns="http://www.w3.org/2000/svg">
<path fill-rule="evenodd" clip-rule="evenodd" d="M35.3443 4.68547C30.0505 7.28852 27.4037 10.3471 27.4037 13.8612C29.66 14.1215 31.5259 15.0434 33.0012 16.6269C34.4765 18.2104 35.2141 20.0434 35.2141 22.1258C35.2141 24.3384 34.4982 26.2039 33.0663 27.7223C31.6343 29.2408 29.8336 30 27.664 30C25.2341 30 23.1296 29.013 21.3506 27.039C19.5715 25.0651 18.682 22.6681 18.682 19.8482C18.682 11.3882 23.4116 4.77226 32.871 0L35.3443 4.68547ZM16.6623 4.68547C11.3251 7.28852 8.6566 10.3471 8.6566 13.8612C10.9564 14.1215 12.8439 15.0434 14.3192 16.6269C15.7945 18.2104 16.5321 20.0434 16.5321 22.1258C16.5321 24.3384 15.8053 26.2039 14.3517 27.7223C12.8981 29.2408 11.0865 30 8.91694 30C6.48701 30 4.39339 29.013 2.63603 27.039C0.878668 25.0651 0 22.6681 0 19.8482C0 11.3882 4.70793 4.77226 14.1239 0L16.6623 4.68547Z" fill="#006FF9"/>
</svg>
